# xmcd
#
# Track frame offsets: 
#        150
#        15352
#        30472
#        45713
#        59414
#        73480
#        84154
#        99271
#        113111
#        125623
#        137222
#        148637
#        159918
#        176274
#
# Disc length: 2519 seconds
#
# Revision: 3
# Processed by: cddbd v1.5.2PL0 Copyright (c) Steve Scherf et al.
# Submitted via: ExactAudioCopy v1.3
#
DISCID=b409d50e
DTITLE=Ricky Van Shelton - His Very Best
DYEAR=1991
DGENRE=Country
TTITLE0=Crime Of Passion
TTITLE1=Somebody Lied
TTITLE2=Life Turned Her That Way
TTITLE3=I Meant Every Word He Said
TTITLE4=I'll Leave This World Loving You
TTITLE5=From A Jack To A King
TTITLE6=Living Proof
TTITLE7=Statue Of A Fool
TTITLE8=Wild Eyed Dream
TTITLE9=Don't We All Have The Right
TTITLE10=Hole In My Pocket
TTITLE11=Ive Cried My Last Tear For You
TTITLE12=Life's Last Little Ups and Downs
TTITLE13=Oh Pretty Woman
EXTD=
EXTT0=
EXTT1=
EXTT2=
EXTT3=
EXTT4=
EXTT5=
EXTT6=
EXTT7=
EXTT8=
EXTT9=
EXTT10=
EXTT11=
EXTT12=
EXTT13=
PLAYORDER=
